# xmcd CD Database Entry
#
# Track frame offsets:
# 150
# 18142
# 39705
# 63595
# 91400
# 110245
# 131312
# 148080
# 170545
# 194520
# 217980
# 234532
#
# Disc length: 3396 seconds
#
# Revision: 1
# Processed by: cddbd v1.4PL0 Copyright (c) Steve Scherf et al.
# Submitted via: tcd 2.0b
#
DISCID=ad0d420c
DTITLE=戀戀琴聲
DYEAR=1900
DGENRE=
TTITLE0=天天天藍
TTITLE1=玫瑰人生
TTITLE2=是否
TTITLE3=酒矸倘賣無
TTITLE4=第 5 音軌
TTITLE5=第 6 音軌
TTITLE6=第 7 音軌
TTITLE7=第 8 音軌
TTITLE8=第 9 音軌
TTITLE9=第 10 音軌
TTITLE10=第 11 音軌
TTITLE11=第 12 音軌
EXTD=
EXTT0=
EXTT1=
EXTT2=
EXTT3=
EXTT4=
EXTT5=
EXTT6=
EXTT7=
EXTT8=
EXTT9=
EXTT10=
EXTT11=
PLAYORDER=
